<?xml version="1.0" encoding="utf-8"?>
<!-- Generator: Adobe Illustrator 28.0.0, SVG Export Plug-In . SVG Version: 6.00 Build 0)  -->
<svg version="1.1" id="Camada_1" xmlns="http://www.w3.org/2000/svg" xmlns:xlink="http://www.w3.org/1999/xlink" x="0px" y="0px"
	 viewBox="0 0 199.8 412.4" style="enable-background:new 0 0 199.8 412.4;" xml:space="preserve">
<style type="text/css">
	.st0{fill:none;stroke:#000000;stroke-width:0.5;stroke-miterlimit:10;}
</style>
<g>
	<path class="st0" d="M70.2,99.5H28.9C18.5,99.5,10,91.1,10,80.7v-50c0-10.3,8.5-18.8,18.8-18.8h41.4c10.3,0,18.8,8.5,18.8,18.8v50
		C89,91.1,80.6,99.5,70.2,99.5z"/>
	<path class="st0" d="M174.5,411.7H25.3c-13.6,0-24.7-11.1-24.7-24.7V25.4c0-13.6,11.1-24.7,24.7-24.7h149.2
		c13.6,0,24.7,11.1,24.7,24.7V387C199.2,400.6,188.1,411.7,174.5,411.7z"/>
</g>
</svg>
